<svg width="40" height="36" viewBox="0 0 40 36" fill="none" xmlns="http://www.w3.org/2000/svg">
<g clip-path="url(#clip0_43_3)">
<path d="M20 21.8096C22.1039 21.8096 23.8095 20.104 23.8095 18.0001C23.8095 15.8962 22.1039 14.1906 20 14.1906C17.896 14.1906 16.1905 15.8962 16.1905 18.0001C16.1905 20.104 17.896 21.8096 20 21.8096Z" fill="#087EA4"/>
<path d="M20 26.5714C30.5197 26.5714 39.0476 22.7339 39.0476 18C39.0476 13.2661 30.5197 9.42859 20 9.42859C9.48029 9.42859 0.952377 13.2661 0.952377 18C0.952377 22.7339 9.48029 26.5714 20 26.5714Z" stroke="#087EA4" stroke-width="1.90476"/>
<path d="M12.5769 22.2857C17.8368 31.3961 25.4241 36.8627 29.5238 34.4957C33.6234 32.1288 32.6829 22.8246 27.4231 13.7143C22.1632 4.60395 14.5758 -0.862653 10.4762 1.50428C6.37652 3.87122 7.31705 13.1754 12.5769 22.2857Z" stroke="#087EA4" stroke-width="1.90476"/>
<path d="M12.5769 13.7143C7.31707 22.8247 6.37654 32.1288 10.4762 34.4958C14.5758 36.8627 22.1632 31.3961 27.4231 22.2858C32.6829 13.1754 33.6235 3.87126 29.5238 1.50432C25.4242 -0.86261 17.8368 4.604 12.5769 13.7143Z" stroke="#087EA4" stroke-width="1.90476"/>
</g>
<defs>
<clipPath id="clip0_43_3">
<rect width="40" height="36" fill="white"/>
</clipPath>
</defs>
</svg>
