<svg width="16" height="16" viewBox="0 0 16 16" fill="none" xmlns="http://www.w3.org/2000/svg">
<path d="M11 13.4V12.2C11 11.5635 10.7472 10.953 10.2971 10.5029C9.84699 10.0528 9.23654 9.79999 8.60002 9.79999H3.80002C3.1635 9.79999 2.55306 10.0528 2.10297 10.5029C1.65288 10.953 1.40002 11.5635 1.40002 12.2V13.4" stroke="#4E515D" stroke-width="1.2" stroke-linecap="round" stroke-linejoin="round"/>
<path d="M6.20005 7.40001C7.52553 7.40001 8.60005 6.32549 8.60005 5.00001C8.60005 3.67452 7.52553 2.60001 6.20005 2.60001C4.87457 2.60001 3.80005 3.67452 3.80005 5.00001C3.80005 6.32549 4.87457 7.40001 6.20005 7.40001Z" stroke="#4E515D" stroke-width="1.2" stroke-linecap="round" stroke-linejoin="round"/>
<path d="M14.6 13.4V12.2C14.5997 11.6682 14.4227 11.1517 14.0969 10.7314C13.7711 10.3111 13.3149 10.0109 12.8 9.87799" stroke="#4E515D" stroke-width="1.2" stroke-linecap="round" stroke-linejoin="round"/>
<path d="M10.4 2.67801C10.9163 2.81019 11.3738 3.11043 11.7006 3.5314C12.0274 3.95236 12.2047 4.47011 12.2047 5.00301C12.2047 5.53591 12.0274 6.05366 11.7006 6.47462C11.3738 6.89559 10.9163 7.19583 10.4 7.32801" stroke="#4E515D" stroke-width="1.2" stroke-linecap="round" stroke-linejoin="round"/>
</svg>
