<svg width="10" height="10" viewBox="0 0 10 10" fill="none" xmlns="http://www.w3.org/2000/svg">
<path d="M2.43899 8.94307H7.31704C7.64048 8.94307 7.95067 8.81459 8.17937 8.58588C8.40807 8.35718 8.53656 8.04699 8.53656 7.72356V2.84551C8.53656 2.62989 8.4509 2.42309 8.29843 2.27063C8.14596 2.11816 7.93917 2.0325 7.72355 2.0325H6.91054V1.21949C6.91054 1.11168 6.86771 1.00828 6.79148 0.932051C6.71524 0.855816 6.61185 0.812988 6.50404 0.812988C6.39622 0.812988 6.29283 0.855816 6.21659 0.932051C6.14036 1.00828 6.09753 1.11168 6.09753 1.21949V2.0325H3.65851V1.21949C3.65851 1.11168 3.61568 1.00828 3.53944 0.932051C3.46321 0.855816 3.35981 0.812988 3.252 0.812988C3.14419 0.812988 3.0408 0.855816 2.96456 0.932051C2.88833 1.00828 2.8455 1.11168 2.8455 1.21949V2.0325H2.03249C1.81687 2.0325 1.61008 2.11816 1.45761 2.27063C1.30514 2.42309 1.21948 2.62989 1.21948 2.84551V7.72356C1.21948 8.04699 1.34797 8.35718 1.57667 8.58588C1.80537 8.81459 2.11556 8.94307 2.43899 8.94307ZM2.03249 5.08128C2.03249 5.02738 2.0539 4.97568 2.09202 4.93756C2.13014 4.89944 2.18184 4.87803 2.23574 4.87803H7.5203C7.5742 4.87803 7.6259 4.89944 7.66402 4.93756C7.70213 4.97568 7.72355 5.02738 7.72355 5.08128V7.72356C7.72355 7.83137 7.68072 7.93477 7.60449 8.011C7.52825 8.08723 7.42485 8.13006 7.31704 8.13006H2.43899C2.33118 8.13006 2.22779 8.08723 2.15155 8.011C2.07532 7.93477 2.03249 7.83137 2.03249 7.72356V5.08128Z" fill="#4E5968"/>
</svg>
