<svg width="21" height="21" viewBox="0 0 21 21" fill="none" xmlns="http://www.w3.org/2000/svg">
<path d="M12.1162 2.30176H5.4495C5.00748 2.30176 4.58355 2.47735 4.27099 2.78991C3.95843 3.10247 3.78284 3.5264 3.78284 3.96842V17.3018C3.78284 17.7438 3.95843 18.1677 4.27099 18.4803C4.58355 18.7928 5.00748 18.9684 5.4495 18.9684H15.4495C15.8915 18.9684 16.3155 18.7928 16.628 18.4803C16.9406 18.1677 17.1162 17.7438 17.1162 17.3018V7.30176L12.1162 2.30176Z" stroke="black" stroke-width="1.5" stroke-linecap="round" stroke-linejoin="round"/>
<path d="M12.1163 2.30176V7.30176H17.1163" stroke="black" stroke-width="1.5" stroke-linecap="round" stroke-linejoin="round"/>
<path d="M13.783 11.4685H7.11633" stroke="black" stroke-width="1.5" stroke-linecap="round" stroke-linejoin="round"/>
<path d="M13.783 14.8018H7.11633" stroke="black" stroke-width="1.5" stroke-linecap="round" stroke-linejoin="round"/>
<path d="M8.783 8.13513H7.94967H7.11633" stroke="black" stroke-width="1.5" stroke-linecap="round" stroke-linejoin="round"/>
</svg>
