<svg width="24" height="24" viewBox="0 0 24 24" fill="none" xmlns="http://www.w3.org/2000/svg">
<g clip-path="url(#clip0_410_705)">
<path d="M5.07004 12.6915V15.272C5.07004 15.9424 5.43737 16.5668 6.0251 16.8883L10.6168 19.3953C11.1678 19.6983 11.829 19.6983 12.38 19.3953L16.9716 16.8883C17.5593 16.5668 17.9267 15.9424 17.9267 15.272V12.6915L12.38 15.722C11.829 16.025 11.1678 16.025 10.6168 15.722L5.07004 12.6915ZM10.6168 3.82041L2.87523 8.04473C2.24158 8.39369 2.24158 9.31202 2.87523 9.66099L10.6168 13.8853C11.1678 14.1884 11.829 14.1884 12.38 13.8853L19.7633 9.85384V15.2812C19.7633 15.7863 20.1766 16.1995 20.6817 16.1995C21.1867 16.1995 21.6 15.7863 21.6 15.2812V9.39467C21.6 9.05489 21.4163 8.75184 21.1225 8.58654L12.38 3.82041C11.829 3.52654 11.1678 3.52654 10.6168 3.82041Z" fill="black"/>
</g>
<defs>
<clipPath id="clip0_410_705">
<rect width="24" height="24" fill="white"/>
</clipPath>
</defs>
</svg>
