<svg width="42" height="40" viewBox="0 0 42 40" fill="none" xmlns="http://www.w3.org/2000/svg">
<path fill-rule="evenodd" clip-rule="evenodd" d="M24.4378 0.663563C24.1546 0.663563 23.8917 0.724243 23.649 0.805146C24.1647 1.14899 24.4479 1.60408 24.5895 2.11985C24.5996 2.19064 24.6198 2.24121 24.63 2.312C24.6401 2.37268 24.6502 2.43336 24.6502 2.49404C24.6907 3.38399 24.4176 3.49523 24.2254 4.02111C23.9321 4.69869 24.0131 5.42684 24.367 6.0134C24.3974 6.08419 24.4378 6.16509 24.4884 6.23588C24.1041 3.67727 26.2379 3.29297 26.6323 2.49404C26.6627 1.79623 26.0862 1.33103 25.6312 1.00741C25.1963 0.744468 24.8019 0.663563 24.4378 0.663563ZM27.6538 1.24001C27.6133 1.47261 27.6436 1.41193 27.6336 1.53329C27.6234 1.61419 27.6234 1.71533 27.6134 1.79623C27.5931 1.87714 27.5729 1.95804 27.5426 2.03895C27.5224 2.11985 27.492 2.20076 27.4617 2.28166C27.4212 2.36257 27.3909 2.43336 27.3504 2.51426C27.3201 2.55473 27.2998 2.59516 27.2695 2.63562C27.2493 2.66596 27.229 2.6963 27.2088 2.72664C27.1583 2.79743 27.1077 2.86822 27.0571 2.9289C26.9965 2.98958 26.9459 3.06037 26.8751 3.11094V3.12106C26.8144 3.17163 26.7537 3.23231 26.6829 3.28287C26.4706 3.44468 26.2279 3.56604 26.0054 3.71774C25.9346 3.7683 25.8638 3.80875 25.8031 3.86943C25.7323 3.92 25.6716 3.97056 25.611 4.03124C25.5402 4.09192 25.4896 4.1526 25.4289 4.22339C25.3784 4.28407 25.3177 4.35486 25.2772 4.42565C25.2267 4.49644 25.1761 4.56724 25.1356 4.63803C25.0952 4.71893 25.0648 4.78972 25.0244 4.87063C24.9941 4.95153 24.9637 5.02233 24.9435 5.10323C24.9132 5.19425 24.8929 5.27515 24.8727 5.35606C24.8626 5.39653 24.8626 5.44707 24.8525 5.48753C24.8423 5.528 24.8424 5.56843 24.8323 5.60889C24.8323 5.68979 24.8222 5.78081 24.8222 5.86171C24.8222 5.92239 24.8222 5.98307 24.8323 6.04375C24.8323 6.12465 24.8424 6.20556 24.8626 6.29658C24.8727 6.37748 24.893 6.45838 24.9132 6.53929C24.9435 6.6202 24.9638 6.7011 24.9941 6.782C25.0143 6.83257 25.0447 6.88314 25.0649 6.92359L22.7389 6.02352C22.3445 5.91228 21.9602 5.81115 21.5657 5.72013C21.3534 5.66957 21.141 5.619 20.9286 5.56843C20.3218 5.44708 19.7049 5.35606 19.088 5.29538C19.0678 5.29538 19.0577 5.28525 19.0375 5.28525C18.4307 5.22458 17.834 5.19424 17.2272 5.19424C16.7823 5.19424 16.3373 5.21445 15.9024 5.2448C15.2855 5.28527 14.6686 5.36616 14.0517 5.46729C13.9 5.4875 13.7483 5.51786 13.5966 5.5482C13.2831 5.60887 12.9797 5.67967 12.6864 5.75046C12.5347 5.79093 12.383 5.83136 12.2313 5.87181C12.0797 5.93249 11.9381 6.00329 11.7965 6.06396C11.6852 6.11453 11.574 6.16509 11.4628 6.21566C11.4425 6.22579 11.4223 6.22579 11.4122 6.23587C11.3111 6.28644 11.22 6.32689 11.129 6.37746C11.0987 6.38758 11.0785 6.39767 11.0582 6.4078C10.947 6.45836 10.8357 6.51904 10.7447 6.5696C10.6739 6.59994 10.6031 6.6404 10.5425 6.67074C10.5121 6.69095 10.4717 6.7112 10.4514 6.7213C10.3604 6.77187 10.2694 6.82243 10.1885 6.873C10.0975 6.92356 10.0166 6.97413 9.94579 7.02469C9.875 7.07526 9.8042 7.11571 9.74353 7.16627C9.73339 7.1764 9.72331 7.1764 9.71319 7.18649C9.65251 7.22695 9.58172 7.2775 9.52104 7.32807C9.52104 7.32807 9.51091 7.3382 9.50083 7.34828C9.45026 7.38875 9.39969 7.42919 9.34913 7.46964C9.32892 7.47976 9.30866 7.49998 9.28845 7.5101C9.23789 7.55057 9.18732 7.60112 9.13676 7.64158C9.12663 7.66179 9.10642 7.67192 9.09629 7.68205C9.03561 7.74272 8.97493 7.79329 8.91425 7.85397C8.90412 7.85397 8.90412 7.8641 8.89404 7.87418C8.83336 7.92474 8.77268 7.98542 8.71201 8.0461C8.70188 8.05623 8.70188 8.06631 8.69179 8.06631C8.64123 8.11688 8.59067 8.16745 8.5401 8.22812C8.51989 8.24833 8.48953 8.26859 8.46931 8.2888C8.41874 8.34948 8.35806 8.41016 8.29739 8.47084C8.28726 8.49105 8.26705 8.50118 8.25692 8.5214C8.17601 8.60231 8.10522 8.68321 8.02432 8.76412C8.01419 8.77424 8.00411 8.78433 7.99398 8.79446C7.83216 8.96638 7.66024 9.1383 7.47821 9.29C7.29617 9.45181 7.10402 9.6035 6.91187 9.73497C6.70961 9.87656 6.51746 9.99791 6.30509 10.1193C6.10282 10.2305 5.89045 10.3316 5.66796 10.4227C5.45558 10.5137 5.2331 10.5946 5.01061 10.6654C4.58586 10.7564 4.15099 10.9283 3.77681 10.9587C3.69591 10.9587 3.60489 10.9789 3.52398 10.989C3.43296 11.0092 3.35206 11.0295 3.27116 11.0497C3.19025 11.08 3.10934 11.1104 3.02844 11.1407C2.94754 11.171 2.86663 11.2115 2.78573 11.2519C2.71493 11.3025 2.63403 11.343 2.56324 11.3935C2.49245 11.4441 2.42165 11.5048 2.36097 11.5654C2.29019 11.616 2.21939 11.6868 2.15871 11.7475C2.09803 11.8183 2.03735 11.879 1.98679 11.9497C1.93623 12.0306 1.87555 12.1014 1.83509 12.1823C1.78453 12.2531 1.73396 12.334 1.69351 12.4149C1.65304 12.506 1.61261 12.5869 1.58227 12.6779C1.55193 12.7588 1.52159 12.8498 1.49125 12.9408C1.47104 13.0217 1.45078 13.1026 1.44068 13.1835C1.44068 13.1937 1.43055 13.2038 1.43055 13.2139C1.41034 13.3049 1.41034 13.4263 1.40022 13.4869C1.39009 13.5577 1.38 13.6184 1.38 13.6892C1.38 13.7297 1.38 13.7802 1.39013 13.8207C1.40026 13.8915 1.41034 13.9521 1.4306 14.0128C1.45081 14.0735 1.47107 14.1342 1.50139 14.1949V14.205C1.53173 14.2657 1.57218 14.3263 1.61263 14.387C1.6531 14.4477 1.69354 14.5084 1.74411 14.5691C1.79467 14.6196 1.85535 14.6803 1.91603 14.7309C1.97671 14.7915 2.03739 14.8421 2.10818 14.8927C2.35089 15.1051 2.41157 15.1758 2.72508 15.3377C2.77564 15.368 2.82621 15.3882 2.88689 15.4186C2.89702 15.4186 2.9071 15.4287 2.91723 15.4287C2.91723 15.4489 2.91723 15.459 2.92736 15.4793C2.93749 15.5602 2.9577 15.6411 2.97792 15.722C2.99813 15.813 3.02849 15.8939 3.05883 15.9647C3.08917 16.0254 3.1094 16.086 3.13974 16.1467C3.14987 16.1669 3.15995 16.1872 3.17008 16.1973C3.21055 16.2782 3.25098 16.349 3.29143 16.4198C3.342 16.4906 3.39256 16.5614 3.44313 16.6321C3.49369 16.6928 3.55437 16.7636 3.61505 16.8243C3.67573 16.885 3.73641 16.9355 3.8072 16.9962C3.8072 16.9962 3.81733 17.0064 3.82741 17.0064C3.88809 17.0569 3.94877 17.1075 4.00945 17.1479C4.08024 17.1985 4.15103 17.239 4.23194 17.2794C4.30273 17.3199 4.38363 17.3603 4.46454 17.3907C4.52522 17.421 4.59601 17.4412 4.6668 17.4614C4.67693 17.4716 4.68701 17.4716 4.70727 17.4817C4.74774 17.4918 4.79828 17.5019 4.83874 17.512C4.8084 18.0581 4.79827 18.5739 4.87921 18.7559C4.97022 18.9582 5.4152 18.3413 5.86018 17.6334C5.7995 18.3312 5.75904 19.1503 5.86018 19.393C5.97142 19.6459 6.57821 18.857 7.10409 17.9873C14.2743 16.3288 20.8175 21.2842 21.5051 28.2825C21.3737 27.1902 20.0286 26.5835 19.4117 26.7352C19.1083 27.4835 18.5926 28.4443 17.7633 29.0409C17.8341 28.3735 17.8038 27.6858 17.6622 27.0183C17.4397 27.9487 17.0048 28.8185 16.4081 29.5668C15.4474 29.6376 14.4867 29.1724 13.981 28.4746C13.9405 28.4443 13.9304 28.3836 13.9001 28.3431C13.8698 28.2723 13.8394 28.2016 13.8192 28.1308C13.7888 28.06 13.7686 27.9892 13.7585 27.9184C13.7484 27.8476 13.7484 27.7768 13.7484 27.6959C13.7484 27.6453 13.7484 27.5948 13.7484 27.5442C13.7585 27.4734 13.7787 27.4026 13.7989 27.3318C13.8192 27.261 13.8394 27.1902 13.8697 27.1194C13.9102 27.0487 13.9405 26.9779 13.9911 26.9071C14.163 26.4216 14.163 26.0272 13.8495 25.7946C13.7888 25.7542 13.7282 25.7238 13.6574 25.6935C13.6169 25.6834 13.5663 25.6632 13.5259 25.653C13.4956 25.6429 13.4753 25.6328 13.445 25.6227C13.3742 25.6025 13.3034 25.5822 13.2326 25.5721C13.1618 25.5519 13.091 25.5418 13.0202 25.5418C12.9494 25.5316 12.8685 25.5216 12.7977 25.5216C12.7472 25.5216 12.6966 25.5317 12.646 25.5317C12.5651 25.5317 12.4944 25.5418 12.4236 25.562C12.3528 25.5722 12.282 25.5822 12.2112 25.6025C12.1404 25.6227 12.0696 25.643 11.9988 25.6733C11.928 25.7036 11.8673 25.734 11.7965 25.7643C11.7359 25.7947 11.6752 25.8351 11.6044 25.8654C9.24804 27.4026 10.6538 31.0029 12.2618 32.0446C11.655 32.1558 11.0381 32.2873 10.8661 32.4187C10.856 32.4289 10.8459 32.439 10.8459 32.439C11.2808 32.7019 11.7359 32.9244 12.2112 33.1165C12.8584 33.3289 13.5461 33.5211 13.8495 33.602V33.6121C14.6889 33.784 15.5384 33.8447 16.398 33.7941C20.8781 33.4806 24.5492 30.0725 25.2167 25.5823C25.2369 25.6733 25.2571 25.7542 25.2773 25.8452C25.3077 26.0273 25.3481 26.2194 25.3684 26.4116V26.4217C25.3886 26.5127 25.3987 26.6037 25.4088 26.6846V26.7251C25.419 26.8161 25.429 26.9071 25.429 26.988C25.4392 27.0993 25.4492 27.2105 25.4492 27.3218V27.4836C25.4492 27.5342 25.4594 27.5948 25.4594 27.6454C25.4594 27.7061 25.4492 27.7668 25.4492 27.8274V27.969C25.4492 28.0398 25.4391 28.1005 25.4391 28.1713C25.4391 28.2117 25.4391 28.2522 25.429 28.3027C25.429 28.3735 25.4189 28.4443 25.4189 28.5252C25.4087 28.5556 25.4087 28.5859 25.4087 28.6163C25.3986 28.6972 25.3885 28.768 25.3784 28.8489C25.3784 28.8792 25.3784 28.9095 25.3682 28.9399C25.3581 29.041 25.3379 29.132 25.3278 29.2332V29.2433V29.2534C25.3076 29.3444 25.2873 29.4456 25.2671 29.5366V29.5669C25.2469 29.6579 25.2266 29.749 25.2064 29.84C25.2064 29.8501 25.1963 29.8703 25.1963 29.8804C25.1761 29.9715 25.1558 30.0625 25.1255 30.1535V30.1838C25.0952 30.285 25.0648 30.376 25.0446 30.467C25.0345 30.4771 25.0345 30.4872 25.0345 30.4872C25.0041 30.5884 24.9738 30.6895 24.9435 30.7906C24.903 30.8917 24.8727 30.9828 24.8322 31.0839C24.7917 31.185 24.7614 31.2862 24.721 31.3772C24.6805 31.4783 24.6401 31.5693 24.5996 31.6705H24.5895C24.549 31.7615 24.5086 31.8626 24.458 31.9536C24.4479 31.984 24.4378 32.0042 24.4277 32.0244C24.4175 32.0345 24.4175 32.0446 24.4074 32.0548C23.7501 33.3796 22.7792 34.5426 21.5657 35.4528C21.4848 35.5033 21.4039 35.564 21.323 35.6247C21.3027 35.6449 21.2724 35.655 21.2522 35.6752C21.1814 35.7258 21.1106 35.7764 21.0297 35.8269L21.06 35.8876H21.0701C21.2117 35.8674 21.3533 35.8471 21.4949 35.8269H21.505C21.768 35.7865 22.0309 35.7359 22.2938 35.6854C22.3646 35.6752 22.4455 35.655 22.5163 35.6348C22.5669 35.6246 22.6073 35.6146 22.6579 35.6044C22.7287 35.5943 22.7995 35.5741 22.8703 35.564C22.931 35.5438 22.9916 35.5336 23.0523 35.5134C24.0636 35.2707 25.0446 34.937 25.9851 34.5426C24.3771 36.7371 22.223 38.5069 19.7049 39.6699C20.8679 39.589 22.0309 39.3968 23.1534 39.0732C27.229 37.8698 30.6574 35.1291 32.7103 31.4378C32.2957 33.774 31.3653 35.9988 29.9899 37.9406C30.9709 37.2933 31.8709 36.5449 32.6901 35.6954C34.9554 33.329 36.4421 30.3254 36.9477 27.0993C37.2916 28.6972 37.3927 30.3456 37.241 31.9738C44.5427 21.7899 37.8478 11.2318 35.0465 8.45074C35.0363 8.43053 35.0262 8.4204 35.0262 8.40018C35.0161 8.4103 35.0161 8.4103 35.0161 8.42039C35.0161 8.41026 35.0161 8.41026 35.006 8.40018C35.006 8.52154 34.9959 8.64289 34.9858 8.76425C34.9554 8.99685 34.9251 9.21934 34.8846 9.44183C34.8341 9.66432 34.7734 9.8868 34.7127 10.1093C34.6419 10.3217 34.561 10.5442 34.47 10.7565C34.379 10.9588 34.2779 11.1712 34.1666 11.3734C34.0554 11.5656 33.934 11.7678 33.8025 11.9499C33.6711 12.142 33.5295 12.3241 33.3879 12.496C33.2362 12.678 33.0744 12.8398 32.9126 13.0016C32.8115 13.0927 32.7204 13.1736 32.6193 13.2545C32.5384 13.3253 32.4676 13.3859 32.3867 13.4567C32.2047 13.5983 32.0226 13.7298 31.8204 13.8511C31.6282 13.9725 31.426 14.0939 31.2237 14.195C31.0113 14.2961 30.7989 14.3871 30.5866 14.4782C30.3742 14.5591 30.1517 14.6298 29.9292 14.6905C29.7067 14.7512 29.4741 14.8018 29.2516 14.8422C29.019 14.8827 28.7864 14.9029 28.564 14.9231C28.4021 14.9333 28.2403 14.9433 28.0785 14.9433C27.8459 14.9433 27.6133 14.9231 27.3908 14.9029C27.1582 14.8827 26.9256 14.8523 26.7031 14.8017C26.4705 14.7613 26.248 14.7006 26.0256 14.6298H26.0154C26.2379 14.6096 26.4604 14.5893 26.6829 14.5489C26.9155 14.5084 27.138 14.4579 27.3605 14.3972C27.583 14.3365 27.8055 14.2657 28.0178 14.1848C28.2403 14.1039 28.4527 14.0028 28.655 13.9017C28.8673 13.8005 29.0595 13.6893 29.2617 13.5679C29.4539 13.4365 29.646 13.305 29.8281 13.1634C30.0101 13.0218 30.182 12.8701 30.3438 12.7083C30.5158 12.5566 30.6675 12.3847 30.8192 12.2128C30.9709 12.0308 31.1124 11.8487 31.2439 11.6667C31.2641 11.6363 31.2844 11.5959 31.3046 11.5655C31.4057 11.4037 31.5068 11.2419 31.5979 11.0801C31.7091 10.8779 31.8102 10.6756 31.9013 10.4632C31.9923 10.2508 32.0732 10.0385 32.144 9.81598C32.2148 9.6036 32.2653 9.38111 32.3159 9.15863C32.3564 8.92603 32.3968 8.70354 32.417 8.48105C32.4372 8.24845 32.4575 8.01585 32.4575 7.79336C32.4575 7.63155 32.4474 7.46974 32.4373 7.30793C32.4171 7.07533 32.3867 6.85284 32.3564 6.63035C32.3159 6.39775 32.2654 6.17526 32.2047 5.95277C32.1339 5.7404 32.0631 5.51791 31.9822 5.30554C31.9013 5.09316 31.8002 4.88078 31.699 4.67852C31.5878 4.47626 31.4765 4.274 31.3552 4.08185C31.2237 3.8897 31.0922 3.70767 30.9507 3.52563C30.799 3.3537 30.6473 3.18178 30.4855 3.00986C30.4046 2.92896 30.3135 2.83794 30.2225 2.75703C29.7674 2.40307 29.2921 2.06934 28.8168 1.76595C28.746 1.72548 28.6853 1.69516 28.6145 1.66481C28.2808 1.45244 27.9673 1.34114 27.6538 1.24001Z" fill="#E0234E"/>
</svg>
