<svg width="40" height="39" viewBox="0 0 40 39" fill="none" xmlns="http://www.w3.org/2000/svg">
<g clip-path="url(#clip0_50_9)">
<path fill-rule="evenodd" clip-rule="evenodd" d="M23.1819 0.674988C22.9083 0.674988 22.6543 0.733605 22.4199 0.811757C22.9181 1.14391 23.1916 1.58353 23.3284 2.08176C23.3382 2.15015 23.3577 2.19899 23.3675 2.26738C23.3773 2.32599 23.387 2.38461 23.387 2.44323C23.4261 3.30292 23.1623 3.41038 22.9767 3.91838C22.6934 4.57292 22.7716 5.27631 23.1135 5.84293C23.1428 5.91131 23.1819 5.98946 23.2307 6.05785C22.8595 3.58623 24.9208 3.215 25.3018 2.44323C25.3311 1.76915 24.7743 1.31976 24.3347 1.00714C23.9146 0.753142 23.5336 0.674988 23.1819 0.674988ZM26.2885 1.23184C26.2494 1.45653 26.2787 1.39791 26.269 1.51514C26.2592 1.5933 26.2592 1.69099 26.2495 1.76914C26.2299 1.8473 26.2104 1.92545 26.1811 2.00361C26.1615 2.08176 26.1322 2.15992 26.1029 2.23807C26.0638 2.31623 26.0345 2.38461 25.9955 2.46276C25.9662 2.50186 25.9466 2.54091 25.9173 2.57999C25.8978 2.6093 25.8782 2.63861 25.8587 2.66792C25.8098 2.73631 25.761 2.80469 25.7121 2.8633C25.6535 2.92192 25.6047 2.9903 25.5363 3.03915V3.04893C25.4777 3.09778 25.4191 3.15639 25.3507 3.20524C25.1455 3.36155 24.9111 3.47878 24.6961 3.62532C24.6278 3.67416 24.5594 3.71324 24.5008 3.77186C24.4324 3.8207 24.3738 3.86955 24.3151 3.92816C24.2468 3.98678 24.1979 4.0454 24.1393 4.11378C24.0905 4.1724 24.0318 4.24078 23.9928 4.30917C23.9439 4.37755 23.8951 4.44594 23.856 4.51432C23.8169 4.59247 23.7876 4.66086 23.7485 4.73901C23.7192 4.81716 23.6899 4.88555 23.6704 4.9637C23.6411 5.05163 23.6215 5.12978 23.602 5.20794C23.5922 5.24703 23.5922 5.29586 23.5825 5.33494C23.5727 5.37403 23.5727 5.41309 23.5629 5.45217C23.5629 5.53032 23.5532 5.61825 23.5532 5.6964C23.5532 5.75502 23.5532 5.81363 23.5629 5.87225C23.5629 5.9504 23.5727 6.02855 23.5922 6.11648C23.602 6.19463 23.6216 6.27279 23.6411 6.35094C23.6704 6.4291 23.6899 6.50725 23.7192 6.5854C23.7388 6.63425 23.7681 6.6831 23.7876 6.72217L21.5407 5.85271C21.1597 5.74525 20.7885 5.64756 20.4075 5.55963C20.2023 5.51079 19.9972 5.46194 19.792 5.41309C19.2059 5.29586 18.6099 5.20794 18.014 5.14933C17.9945 5.14933 17.9847 5.13954 17.9652 5.13954C17.379 5.08093 16.8026 5.05162 16.2165 5.05162C15.7866 5.05162 15.3568 5.07114 14.9367 5.10046C14.3408 5.13956 13.7448 5.2177 13.1489 5.31539C13.0024 5.33491 12.8558 5.36424 12.7093 5.39354C12.4064 5.45216 12.1134 5.52054 11.8301 5.58893C11.6835 5.62802 11.537 5.66708 11.3904 5.70616C11.2439 5.76477 11.1071 5.83316 10.9704 5.89178C10.8629 5.94062 10.7554 5.98947 10.648 6.03831C10.6285 6.0481 10.6089 6.0481 10.5991 6.05784C10.5014 6.10668 10.4135 6.14576 10.3256 6.19461C10.2963 6.20439 10.2767 6.21413 10.2572 6.22392C10.1497 6.27276 10.0423 6.33138 9.95436 6.38022C9.88598 6.40953 9.81759 6.44861 9.75898 6.47792C9.72967 6.49744 9.69059 6.51701 9.67105 6.52676C9.58313 6.57561 9.49521 6.62445 9.41705 6.6733C9.32913 6.72215 9.25098 6.77099 9.18259 6.81984C9.11421 6.86869 9.04582 6.90776 8.9872 6.95661C8.97742 6.96639 8.96768 6.96639 8.9579 6.97613C8.89928 7.01522 8.8309 7.06405 8.77228 7.1129C8.77228 7.1129 8.7625 7.12268 8.75276 7.13243C8.70391 7.17152 8.65506 7.21058 8.60622 7.24965C8.5867 7.25944 8.56713 7.27896 8.5476 7.28875C8.49876 7.32784 8.44991 7.37667 8.40107 7.41575C8.39128 7.43527 8.37176 7.44506 8.36197 7.45484C8.30336 7.51346 8.24474 7.5623 8.18613 7.62092C8.17634 7.62092 8.17634 7.6307 8.1666 7.64044C8.10799 7.68929 8.04937 7.7479 7.99076 7.80652C7.98097 7.8163 7.98097 7.82604 7.97123 7.82604C7.92239 7.87489 7.87354 7.92374 7.82469 7.98235C7.80517 8.00187 7.77585 8.02144 7.75631 8.04096C7.70746 8.09958 7.64885 8.1582 7.59023 8.21681C7.58045 8.23634 7.56093 8.24612 7.55114 8.26566C7.47299 8.34382 7.4046 8.42197 7.32645 8.50012C7.31666 8.50991 7.30692 8.51964 7.29714 8.52943C7.14083 8.69551 6.97475 8.86158 6.79891 9.00812C6.62306 9.16443 6.43745 9.31097 6.25183 9.43797C6.05644 9.57474 5.87083 9.69197 5.66567 9.8092C5.47029 9.91666 5.26513 10.0144 5.05021 10.1023C4.84505 10.1902 4.63013 10.2684 4.41521 10.3367C4.0049 10.4247 3.58482 10.5907 3.22336 10.62C3.1452 10.62 3.05728 10.6396 2.97913 10.6494C2.8912 10.6689 2.81305 10.6884 2.7349 10.708C2.65674 10.7373 2.57858 10.7666 2.50043 10.7959C2.42228 10.8252 2.34413 10.8643 2.26597 10.9034C2.19759 10.9522 2.11943 10.9913 2.05105 11.0401C1.98266 11.089 1.91428 11.1476 1.85566 11.2062C1.78728 11.2551 1.71889 11.3234 1.66027 11.3821C1.60166 11.4504 1.54304 11.5091 1.4942 11.5774C1.44535 11.6556 1.38674 11.724 1.34766 11.8021C1.29881 11.8705 1.24997 11.9487 1.21089 12.0268C1.1718 12.1147 1.13274 12.1929 1.10343 12.2808C1.07412 12.359 1.04481 12.4469 1.0155 12.5348C0.99598 12.613 0.976411 12.6911 0.966658 12.7693C0.966658 12.7791 0.956874 12.7888 0.956874 12.7986C0.937351 12.8865 0.937351 13.0038 0.927566 13.0624C0.917782 13.1308 0.908043 13.1894 0.908043 13.2578C0.908043 13.2968 0.908043 13.3457 0.917827 13.3848C0.927612 13.4531 0.93735 13.5118 0.95692 13.5704C0.976443 13.629 0.996012 13.6876 1.0253 13.7462V13.756C1.05461 13.8146 1.09369 13.8732 1.13276 13.9318C1.17186 13.9905 1.21092 14.0491 1.25977 14.1077C1.30861 14.1565 1.36723 14.2152 1.42584 14.264C1.48446 14.3226 1.54308 14.3715 1.61146 14.4203C1.84592 14.6255 1.90454 14.6939 2.20738 14.8502C2.25623 14.8795 2.30508 14.899 2.36369 14.9283C2.37348 14.9283 2.38322 14.9381 2.393 14.9381C2.393 14.9576 2.393 14.9674 2.40279 14.9869C2.41257 15.0651 2.4321 15.1432 2.45163 15.2214C2.47116 15.3093 2.50048 15.3875 2.52979 15.4559C2.5591 15.5145 2.57864 15.5731 2.60794 15.6317C2.61773 15.6512 2.62747 15.6708 2.63725 15.6806C2.67635 15.7587 2.71541 15.8271 2.75448 15.8955C2.80333 15.9639 2.85217 16.0323 2.90102 16.1006C2.94986 16.1593 3.00848 16.2276 3.0671 16.2863C3.12571 16.3449 3.18433 16.3937 3.25272 16.4523C3.25272 16.4523 3.2625 16.4621 3.27224 16.4621C3.33086 16.511 3.38947 16.5598 3.44809 16.5989C3.51647 16.6477 3.58486 16.6868 3.66301 16.7259C3.7314 16.765 3.80955 16.804 3.8877 16.8334C3.94632 16.8627 4.0147 16.8822 4.08309 16.9017C4.09287 16.9115 4.10261 16.9115 4.12218 16.9213C4.16127 16.9311 4.2101 16.9408 4.24918 16.9506C4.21987 17.4781 4.21009 17.9763 4.28827 18.1522C4.37619 18.3476 4.80604 17.7517 5.23589 17.0678C5.17727 17.7419 5.13819 18.5332 5.23589 18.7677C5.34335 19.0119 5.9295 18.2499 6.43751 17.4097C13.3639 15.8076 19.6846 20.5945 20.3489 27.3548C20.2219 26.2998 18.9226 25.7136 18.3267 25.8601C18.0336 26.5831 17.5354 27.5111 16.7343 28.0875C16.8027 27.4428 16.7734 26.7785 16.6366 26.1337C16.4217 27.0324 16.0016 27.8726 15.4252 28.5955C14.4971 28.6639 13.5691 28.2145 13.0806 27.5405C13.0415 27.5111 13.0318 27.4525 13.0024 27.4135C12.9731 27.3451 12.9438 27.2767 12.9243 27.2083C12.895 27.1399 12.8754 27.0715 12.8657 27.0031C12.8559 26.9348 12.8559 26.8664 12.8559 26.7882C12.8559 26.7394 12.8559 26.6905 12.8559 26.6417C12.8657 26.5733 12.8852 26.5049 12.9047 26.4365C12.9243 26.3681 12.9438 26.2998 12.9731 26.2314C13.0122 26.163 13.0415 26.0946 13.0904 26.0262C13.2564 25.5573 13.2564 25.1763 12.9536 24.9516C12.895 24.9125 12.8364 24.8832 12.768 24.8539C12.7289 24.8441 12.68 24.8246 12.641 24.8148C12.6117 24.805 12.5921 24.7953 12.5628 24.7855C12.4944 24.766 12.426 24.7464 12.3577 24.7367C12.2893 24.7171 12.2209 24.7074 12.1525 24.7074C12.0841 24.6976 12.006 24.6878 11.9376 24.6878C11.8887 24.6878 11.8399 24.6976 11.791 24.6976C11.7129 24.6976 11.6445 24.7074 11.5761 24.7269C11.5077 24.7367 11.4394 24.7464 11.371 24.766C11.3026 24.7855 11.2342 24.8051 11.1658 24.8344C11.0974 24.8637 11.0388 24.893 10.9704 24.9223C10.9118 24.9516 10.8532 24.9907 10.7848 25.02C8.50857 26.5049 9.8665 29.9828 11.4198 30.989C10.8337 31.0965 10.2377 31.2235 10.0717 31.3505C10.0619 31.3603 10.0521 31.37 10.0521 31.37C10.4722 31.624 10.9118 31.8389 11.371 32.0245C11.9962 32.2297 12.6605 32.4153 12.9536 32.4935V32.5033C13.7644 32.6693 14.5851 32.728 15.4155 32.6791C19.7432 32.3763 23.2895 29.084 23.9343 24.7465C23.9538 24.8344 23.9733 24.9125 23.9929 25.0005C24.0222 25.1763 24.0612 25.3619 24.0808 25.5475V25.5573C24.1003 25.6453 24.1101 25.7332 24.1199 25.8113V25.8504C24.1297 25.9384 24.1394 26.0263 24.1394 26.1044C24.1492 26.2119 24.1589 26.3194 24.1589 26.4268V26.5831C24.1589 26.632 24.1687 26.6906 24.1687 26.7394C24.1687 26.7981 24.1589 26.8567 24.1589 26.9153V27.0521C24.1589 27.1204 24.1491 27.1791 24.1491 27.2474C24.1491 27.2865 24.1491 27.3256 24.1394 27.3744C24.1394 27.4428 24.1296 27.5112 24.1296 27.5894C24.1198 27.6187 24.1198 27.648 24.1198 27.6773C24.11 27.7554 24.1002 27.8238 24.0905 27.902C24.0905 27.9313 24.0905 27.9606 24.0807 27.9899C24.0709 28.0876 24.0514 28.1755 24.0416 28.2732V28.283V28.2928C24.0221 28.3807 24.0025 28.4784 23.983 28.5663V28.5956C23.9635 28.6836 23.9439 28.7715 23.9244 28.8594C23.9244 28.8692 23.9146 28.8887 23.9146 28.8985C23.8951 28.9864 23.8755 29.0743 23.8462 29.1623V29.1916C23.8169 29.2893 23.7876 29.3772 23.768 29.4651C23.7583 29.4749 23.7583 29.4846 23.7583 29.4846C23.7289 29.5823 23.6996 29.68 23.6703 29.7777C23.6312 29.8754 23.602 29.9633 23.5629 30.061C23.5238 30.1587 23.4945 30.2564 23.4554 30.3443C23.4163 30.442 23.3773 30.53 23.3382 30.6276H23.3284C23.2893 30.7156 23.2502 30.8133 23.2014 30.9012C23.1916 30.9305 23.1819 30.95 23.1721 30.9696C23.1623 30.9794 23.1623 30.9891 23.1526 30.9989C22.5176 32.2786 21.5797 33.4021 20.4074 34.2813C20.3292 34.3302 20.2511 34.3888 20.1729 34.4474C20.1534 34.4669 20.1241 34.4767 20.1045 34.4963C20.0362 34.5451 19.9678 34.594 19.8896 34.6428L19.9189 34.7014H19.9287C20.0655 34.6819 20.2022 34.6623 20.339 34.6428H20.3488C20.6028 34.6037 20.8568 34.5549 21.1108 34.506C21.1792 34.4962 21.2573 34.4767 21.3257 34.4572C21.3746 34.4474 21.4136 34.4377 21.4625 34.4279C21.5309 34.4181 21.5993 34.3986 21.6677 34.3888C21.7263 34.3693 21.7849 34.3595 21.8435 34.3399C22.8204 34.1055 23.768 33.7831 24.6766 33.4021C23.1233 35.522 21.0424 37.2316 18.6099 38.3551C19.7333 38.2769 20.8568 38.0913 21.9412 37.7787C25.8782 36.6162 29.19 33.9687 31.1731 30.4029C30.7726 32.6596 29.8738 34.8089 28.5452 36.6846C29.4928 36.0593 30.3623 35.3364 31.1536 34.5158C33.3419 32.2298 34.778 29.3283 35.2665 26.2119C35.5986 27.7555 35.6963 29.3479 35.5498 30.9207C42.6032 21.0831 36.1359 10.8839 33.4298 8.1974C33.42 8.17788 33.4103 8.16809 33.4103 8.14856C33.4005 8.15834 33.4005 8.15834 33.4005 8.16808C33.4005 8.1583 33.4005 8.1583 33.3907 8.14856C33.3907 8.26579 33.381 8.38302 33.3712 8.50025C33.3419 8.72494 33.3126 8.93987 33.2735 9.15479C33.2247 9.36971 33.1661 9.58463 33.1074 9.79956C33.0391 10.0047 32.9609 10.2196 32.873 10.4248C32.7851 10.6202 32.6874 10.8253 32.5799 11.0207C32.4724 11.2063 32.3552 11.4017 32.2282 11.5776C32.1012 11.7632 31.9644 11.939 31.8277 12.1051C31.6811 12.281 31.5248 12.4373 31.3685 12.5936C31.2708 12.6815 31.1829 12.7596 31.0852 12.8378C31.0071 12.9062 30.9387 12.9648 30.8605 13.0332C30.6847 13.17 30.5088 13.297 30.3134 13.4142C30.1278 13.5314 29.9324 13.6486 29.7371 13.7463C29.5319 13.844 29.3267 13.932 29.1216 14.0199C28.9164 14.098 28.7015 14.1664 28.4866 14.225C28.2717 14.2836 28.047 14.3325 27.832 14.3716C27.6074 14.4107 27.3827 14.4302 27.1677 14.4497C27.0114 14.4595 26.8551 14.4693 26.6988 14.4693C26.4741 14.4693 26.2494 14.4497 26.0345 14.4302C25.8098 14.4106 25.5851 14.3813 25.3702 14.3325C25.1455 14.2934 24.9306 14.2348 24.7157 14.1664H24.7059C24.9208 14.1469 25.1357 14.1273 25.3506 14.0882C25.5753 14.0491 25.7903 14.0003 26.0052 13.9417C26.2201 13.8831 26.435 13.8147 26.6402 13.7365C26.8551 13.6584 27.0603 13.5607 27.2556 13.463C27.4608 13.3653 27.6464 13.2578 27.8418 13.1406C28.0274 13.0136 28.213 12.8866 28.3889 12.7498C28.5647 12.6131 28.7308 12.4665 28.8871 12.3102C29.0532 12.1637 29.1997 11.9976 29.3463 11.8315C29.4928 11.6557 29.6296 11.4798 29.7566 11.304C29.7761 11.2747 29.7957 11.2356 29.8152 11.2063C29.9129 11.05 30.0106 10.8937 30.0985 10.7374C30.206 10.542 30.3037 10.3466 30.3916 10.1415C30.4795 9.9363 30.5577 9.73114 30.626 9.51622C30.6944 9.31106 30.7433 9.09614 30.7921 8.88122C30.8312 8.65653 30.8703 8.4416 30.8898 8.22668C30.9093 8.00199 30.9289 7.77729 30.9289 7.56237C30.9289 7.40606 30.9191 7.24975 30.9094 7.09345C30.8899 6.86875 30.8605 6.65383 30.8312 6.43891C30.7921 6.21421 30.7433 5.99929 30.6847 5.78436C30.6163 5.57921 30.5479 5.36429 30.4698 5.15913C30.3916 4.95398 30.2939 4.74882 30.1962 4.55344C30.0888 4.35805 29.9813 4.16267 29.8641 3.97705C29.7371 3.79144 29.6101 3.61559 29.4733 3.43974C29.3268 3.27366 29.1802 3.10759 29.0239 2.94151C28.9458 2.86336 28.8578 2.77543 28.7699 2.69728C28.3303 2.35535 27.8711 2.03297 27.412 1.73989C27.3436 1.7008 27.285 1.67151 27.2166 1.6422C26.8942 1.43704 26.5913 1.32953 26.2885 1.23184Z" fill="#E0234E"/>
</g>
<defs>
<clipPath id="clip0_50_9">
<rect width="40" height="38.64" fill="white" transform="translate(0 0.0339966)"/>
</clipPath>
</defs>
</svg>
