<svg width="40" height="40" viewBox="0 0 40 40" fill="none" xmlns="http://www.w3.org/2000/svg">
<g clip-path="url(#clip0_1_93)">
<path d="M20 40C31.0456 40 40 31.0456 40 20C40 8.9543 31.0456 0 20 0C8.9543 0 0 8.9543 0 20C0 31.0456 8.9543 40 20 40Z" fill="black"/>
<path d="M33.2234 35.0047L15.3656 12H12V27.9937H14.6922V15.4187L31.1109 36.6328C31.8516 36.1359 32.5578 35.5922 33.2234 35.0047Z" fill="url(#paint0_linear_1_93)"/>
<path d="M28.2235 12H25.5563V28H28.2235V12Z" fill="url(#paint1_linear_1_93)"/>
</g>
<defs>
<linearGradient id="paint0_linear_1_93" x1="20.7355" y1="28.3689" x2="27.8244" y2="37.1547" gradientUnits="userSpaceOnUse">
<stop stop-color="white"/>
<stop offset="1" stop-color="white" stop-opacity="0"/>
</linearGradient>
<linearGradient id="paint1_linear_1_93" x1="26.888" y1="11.9955" x2="26.84" y2="23.7458" gradientUnits="userSpaceOnUse">
<stop stop-color="white"/>
<stop offset="1" stop-color="white" stop-opacity="0"/>
</linearGradient>
<clipPath id="clip0_1_93">
<rect width="40" height="40" fill="white"/>
</clipPath>
</defs>
</svg>
