<svg width="24" height="24" viewBox="0 0 24 24" fill="none" xmlns="http://www.w3.org/2000/svg">
<path d="M13.35 13.5001H11.25C10.8 13.5001 10.5 13.2001 10.5 12.7501V10.6501C10.5 10.4251 10.575 10.2751 10.725 10.1251L18.675 2.17507C18.825 2.02507 18.975 1.95007 19.2 1.95007C19.425 1.95007 19.575 2.02507 19.725 2.17507L21.825 4.27507C22.125 4.57507 22.125 5.02507 21.825 5.32507L13.875 13.2751C13.725 13.4251 13.575 13.5001 13.35 13.5001Z" fill="black"/>
<path d="M14.925 14.325C14.475 14.775 13.95 15 13.35 15H11.25C9.975 15 9 14.025 9 12.75V10.65C9 10.05 9.225 9.45 9.675 9.075L14.175 4.5H6.75C5.475 4.5 4.5 5.475 4.5 6.75V17.25C4.5 18.525 5.475 19.5 6.75 19.5H17.25C18.525 19.5 19.5 18.525 19.5 17.25V9.825L14.925 14.325Z" fill="black"/>
</svg>
