<svg width="45" height="40" viewBox="0 0 45 40" fill="none" xmlns="http://www.w3.org/2000/svg">
<g clip-path="url(#clip0_1_97)">
<path d="M22.2222 24.2329C24.5599 24.2329 26.455 22.3378 26.455 20.0001C26.455 17.6624 24.5599 15.7673 22.2222 15.7673C19.8845 15.7673 17.9894 17.6624 17.9894 20.0001C17.9894 22.3378 19.8845 24.2329 22.2222 24.2329Z" fill="#087EA4"/>
<path d="M22.2222 29.5238C33.9108 29.5238 43.3863 25.2599 43.3863 20C43.3863 14.7402 33.9108 10.4762 22.2222 10.4762C10.5337 10.4762 1.05823 14.7402 1.05823 20C1.05823 25.2599 10.5337 29.5238 22.2222 29.5238Z" stroke="#087EA4" stroke-width="1.90476"/>
<path d="M13.9743 24.7619C19.8186 34.8845 28.2491 40.9585 32.8042 38.3286C37.3594 35.6986 36.3144 25.3607 30.4701 15.2381C24.6258 5.11549 16.1954 -0.958515 11.6402 1.67141C7.08503 4.30134 8.13007 14.6393 13.9743 24.7619Z" stroke="#087EA4" stroke-width="1.90476"/>
<path d="M13.9744 15.2381C8.13011 25.3607 7.08507 35.6987 11.6402 38.3286C16.1954 40.9585 24.6258 34.8845 30.4701 24.7619C36.3144 14.6393 37.3594 4.30138 32.8043 1.67145C28.2491 -0.958476 19.8187 5.11553 13.9744 15.2381Z" stroke="#087EA4" stroke-width="1.90476"/>
</g>
<defs>
<clipPath id="clip0_1_97">
<rect width="44.4444" height="40" fill="white"/>
</clipPath>
</defs>
</svg>
