<svg width="24" height="24" viewBox="0 0 24 24" fill="none" xmlns="http://www.w3.org/2000/svg">
<path d="M20.9051 3.25135C20.8977 3.21581 20.8804 3.18311 20.8551 3.15706C20.8299 3.13101 20.7977 3.11271 20.7624 3.10429C18.4091 2.52893 12.9717 4.57927 10.0257 7.524C9.50032 8.04519 9.02131 8.61118 8.59417 9.21555C7.68572 9.13519 6.77726 9.20229 6.00301 9.53979C3.81847 10.5013 3.18243 13.0101 3.00524 14.0893C2.99519 14.1483 2.99898 14.2089 3.01632 14.2663C3.03365 14.3237 3.06406 14.3762 3.10514 14.4198C3.14623 14.4634 3.19687 14.4969 3.25309 14.5177C3.30931 14.5384 3.36957 14.5458 3.42913 14.5393L6.93718 14.1524C6.93968 14.4168 6.95563 14.681 6.98499 14.9439C7.00264 15.1264 7.08367 15.297 7.21401 15.426L8.57247 16.7813C8.70162 16.9114 8.87214 16.9924 9.05462 17.0103C9.31601 17.0395 9.57872 17.0555 9.84173 17.0581L9.45681 20.5617C9.45039 20.6213 9.45785 20.6815 9.47861 20.7377C9.49937 20.7939 9.53286 20.8445 9.57645 20.8855C9.62005 20.9266 9.67257 20.957 9.72988 20.9744C9.7872 20.9917 9.84776 20.9956 9.90682 20.9856C10.984 20.8129 13.4972 20.1768 14.4531 17.9923C14.7906 17.218 14.8597 16.314 14.7818 15.41C15.3876 14.9828 15.9551 14.5037 16.4777 13.978C19.4329 11.0377 21.4716 5.72156 20.9051 3.25135ZM13.5294 10.4703C13.2595 10.2007 13.0757 9.85703 13.0012 9.48288C12.9267 9.10874 12.9648 8.7209 13.1107 8.36842C13.2567 8.01594 13.5039 7.71466 13.821 7.50268C14.1382 7.29071 14.5112 7.17757 14.8927 7.17757C15.2741 7.17757 15.6471 7.29071 15.9643 7.50268C16.2814 7.71466 16.5286 8.01594 16.6746 8.36842C16.8205 8.7209 16.8586 9.10874 16.7841 9.48288C16.7096 9.85703 16.5258 10.2007 16.2559 10.4703C16.077 10.6495 15.8645 10.7917 15.6306 10.8887C15.3966 10.9857 15.1459 11.0356 14.8927 11.0356C14.6394 11.0356 14.3887 10.9857 14.1547 10.8887C13.9208 10.7917 13.7083 10.6495 13.5294 10.4703Z" fill="black"/>
<path d="M8.48039 17.7627C8.26021 17.9833 7.90704 18.0692 7.48194 18.1428C6.52688 18.3055 5.68352 17.4802 5.85509 16.5147C5.92058 16.1487 6.11424 15.6356 6.23478 15.5151C6.26113 15.4892 6.27866 15.4557 6.2849 15.4194C6.29113 15.383 6.28575 15.3456 6.26952 15.3124C6.25328 15.2793 6.22702 15.2521 6.19446 15.2348C6.16189 15.2174 6.12469 15.2107 6.08813 15.2157C5.55405 15.2811 5.05718 15.5232 4.67663 15.9036C3.73202 16.849 3.64282 20.357 3.64282 20.357C3.64282 20.357 7.15287 20.2678 8.09749 19.3224C8.47903 18.9422 8.72147 18.4446 8.78576 17.9097C8.80062 17.7418 8.59611 17.6417 8.48039 17.7627Z" fill="black"/>
</svg>
