<svg width="20" height="20" viewBox="0 0 20 20" fill="none" xmlns="http://www.w3.org/2000/svg">
<path d="M8.59204 10.7043C8.89436 11.1084 9.28007 11.4429 9.72301 11.6849C10.1659 11.9268 10.6557 12.0708 11.1592 12.1068C11.6626 12.1429 12.1679 12.0702 12.6408 11.8938C13.1137 11.7174 13.5432 11.4414 13.9 11.0844L16.0119 8.97248C16.6531 8.30863 17.0079 7.4195 16.9999 6.49661C16.9918 5.57371 16.6217 4.69088 15.969 4.03827C15.3164 3.38566 14.4336 3.01548 13.5107 3.00746C12.5878 2.99944 11.6987 3.35422 11.0348 3.99539L9.82399 5.19919" stroke="#4E5968" stroke-width="1.8" stroke-linecap="round" stroke-linejoin="round"/>
<path d="M11.4079 9.29631C11.1056 8.89214 10.7199 8.55771 10.277 8.31572C9.83404 8.07372 9.34424 7.92981 8.8408 7.89376C8.33736 7.8577 7.83205 7.93034 7.35915 8.10675C6.88625 8.28315 6.45682 8.5592 6.09999 8.91616L3.98807 11.0281C3.3469 11.6919 2.99211 12.5811 3.00013 13.504C3.00815 14.4269 3.37833 15.3097 4.03095 15.9623C4.68356 16.6149 5.56638 16.9851 6.48928 16.9931C7.41218 17.0011 8.30131 16.6463 8.96516 16.0052L10.169 14.8014" stroke="#4E5968" stroke-width="1.8" stroke-linecap="round" stroke-linejoin="round"/>
</svg>
