<svg width="10" height="10" viewBox="0 0 10 10" fill="none" xmlns="http://www.w3.org/2000/svg">
<g clip-path="url(#clip0_546_49)">
<path d="M4.57145 8.23175C4.54311 8.23167 4.51487 8.22829 4.48731 8.22169C4.38504 8.19173 4.29784 8.12429 4.24313 8.03284C4.18842 7.94139 4.17023 7.83267 4.19219 7.72839L5.29341 1.86132C5.30322 1.80529 5.32427 1.75183 5.35529 1.70415C5.38631 1.65647 5.42665 1.61556 5.47389 1.58388C5.5152 1.55681 5.56159 1.53844 5.61024 1.52989C5.65888 1.52135 5.70876 1.52281 5.75682 1.53419C5.859 1.56421 5.94613 1.6316 6.00087 1.72295C6.05562 1.8143 6.07396 1.92291 6.05225 2.02717L4.95011 7.89638C4.94038 7.95228 4.91942 8.00563 4.88851 8.05321C4.85759 8.10078 4.81736 8.14161 4.77023 8.17321C4.711 8.21147 4.64197 8.2318 4.57145 8.23175Z" fill="#4E5968"/>
<path d="M6.77967 7.40037H6.75193C6.69843 7.39568 6.64654 7.37966 6.5997 7.35337C6.55287 7.32709 6.51216 7.29115 6.48028 7.24793C6.41734 7.16255 6.38694 7.05751 6.39454 6.95171C6.40214 6.84591 6.44725 6.7463 6.52174 6.67079L8.41473 4.81927L6.52906 3.0961C6.45266 3.02261 6.40495 2.92429 6.39451 2.8188C6.38406 2.7133 6.41155 2.60754 6.47205 2.52049C6.50271 2.47588 6.54252 2.43832 6.58884 2.4103C6.63515 2.38228 6.6869 2.36445 6.74064 2.35799C6.79277 2.35247 6.84546 2.35822 6.89517 2.37484C6.94488 2.39146 6.99043 2.41857 7.02875 2.45433L9.25254 4.48726C9.32915 4.56064 9.37709 4.65893 9.38776 4.76449C9.39844 4.87004 9.37114 4.97593 9.31077 5.06317C9.29387 5.08723 9.27457 5.1095 9.25314 5.12964L7.03821 7.29427C6.96906 7.36184 6.87635 7.39989 6.77967 7.40037Z" fill="#4E5968"/>
<path d="M3.46441 7.40162C3.36699 7.40099 3.27371 7.36212 3.20466 7.29339L0.98789 5.12876C0.966977 5.10963 0.948356 5.08815 0.932402 5.06473C0.871925 4.97776 0.84447 4.87206 0.854978 4.76666C0.865485 4.66125 0.913264 4.56305 0.98972 4.48973L3.21533 2.45619C3.25309 2.42024 3.29825 2.39297 3.34764 2.37628C3.39703 2.35959 3.44948 2.35388 3.5013 2.35955C3.55527 2.36572 3.6073 2.38333 3.65393 2.41119C3.70056 2.43906 3.74072 2.47653 3.77173 2.52113C3.8324 2.60824 3.85998 2.71413 3.84953 2.81976C3.83908 2.92539 3.79128 3.02383 3.71472 3.09735L1.82935 4.81991L3.72326 6.67022C3.79784 6.74571 3.84293 6.84542 3.85037 6.95128C3.85781 7.05714 3.8271 7.16217 3.7638 7.24735C3.73196 7.29075 3.69118 7.32681 3.64421 7.3531C3.59725 7.3794 3.54519 7.39532 3.49155 7.39979C3.4824 7.40101 3.47356 7.40162 3.46441 7.40162Z" fill="#4E5968"/>
</g>
<defs>
<clipPath id="clip0_546_49">
<rect width="9.7561" height="9.7561" fill="white" transform="translate(0.243896)"/>
</clipPath>
</defs>
</svg>
