<svg width="41" height="40" viewBox="0 0 41 40" fill="none" xmlns="http://www.w3.org/2000/svg">
<path d="M36.4592 2.30102C35.884 3.69948 35.1401 4.93925 34.3169 6.05009C30.6868 2.35061 25.6087 0 20.005 0C8.99578 0 0 8.94619 0 19.995C0 25.7674 2.46963 30.9645 6.3873 34.6343L7.13117 35.2988C10.5926 38.2246 15.0955 40 19.995 40C30.5083 40 39.1669 31.7977 39.9107 21.4431C40.5058 16.4146 38.9784 9.97768 36.4592 2.30102ZM9.28341 34.8029C8.70816 35.5467 7.63699 35.6261 6.89313 35.0508C6.14927 34.4756 6.06992 33.4044 6.64518 32.6606C7.22043 31.9167 8.29159 31.8373 9.03546 32.4126C9.73965 32.9879 9.85867 34.059 9.28341 34.8029ZM36.3402 28.8222C31.4307 35.3781 20.8778 33.1565 14.1532 33.4838C14.1532 33.4838 12.9531 33.5631 11.763 33.7317C11.763 33.7317 12.2192 33.5234 12.7944 33.3152C17.5353 31.6687 19.7669 31.3315 22.6531 29.8537C28.0585 27.0865 33.454 21.0265 34.5351 14.7582C32.4721 20.7786 26.2038 25.9757 20.5108 28.0784C16.5931 29.5264 9.54128 30.9249 9.54128 30.9249L9.25366 30.7563C4.4731 28.4057 4.30449 18.0114 13.0523 14.669C16.8907 13.1813 20.5207 14.0045 24.6863 13.0226C29.0999 11.9911 34.2177 8.68832 36.2708 4.364C38.5619 11.3365 41.3687 22.1374 36.3402 28.8222Z" fill="#7DB345"/>
<path d="M9.28339 34.8029C8.70813 35.5467 7.63697 35.6261 6.89311 35.0508C6.14924 34.4756 6.0699 33.4044 6.64515 32.6605C7.22041 31.9167 8.29157 31.8373 9.03543 32.4126C9.73962 32.9878 9.85864 34.059 9.28339 34.8029Z" fill="white"/>
<path d="M36.3402 28.8222C31.4307 35.3781 20.8778 33.1565 14.1532 33.4838C14.1532 33.4838 12.9531 33.5631 11.763 33.7317C11.763 33.7317 12.2192 33.5234 12.7944 33.3152C17.5353 31.6687 19.7669 31.3315 22.6531 29.8537C28.0585 27.0865 33.454 21.0265 34.5351 14.7583C32.4721 20.7786 26.2038 25.9757 20.5108 28.0784C16.5931 29.5264 9.54129 30.9249 9.54129 30.9249L9.25366 30.7563C4.4731 28.4057 4.30449 18.0114 13.0523 14.669C16.8907 13.1813 20.5207 14.0045 24.6863 13.0226C29.0999 11.9911 34.2177 8.68833 36.2708 4.36401C38.5619 11.3365 41.3687 22.1374 36.3402 28.8222Z" fill="white"/>
</svg>
