<svg width="10" height="10" viewBox="0 0 10 10" fill="none" xmlns="http://www.w3.org/2000/svg">
<path d="M8.53656 8.3742C8.53656 8.58982 8.4509 8.79662 8.29843 8.94909C8.14596 9.10155 7.93917 9.18721 7.72355 9.18721H2.03249C1.81687 9.18721 1.61008 9.10155 1.45761 8.94909C1.30514 8.79662 1.21948 8.58982 1.21948 8.3742C1.21948 7.72733 1.47645 7.10696 1.93386 6.64955C2.39126 6.19215 3.01164 5.93518 3.65851 5.93518H6.09753C6.7444 5.93518 7.36478 6.19215 7.82218 6.64955C8.27959 7.10696 8.53656 7.72733 8.53656 8.3742ZM4.87802 5.12217C5.28001 5.12217 5.67298 5.00296 6.00723 4.77963C6.34147 4.55629 6.60199 4.23886 6.75582 3.86746C6.90966 3.49607 6.94991 3.0874 6.87149 2.69312C6.79306 2.29885 6.59948 1.93669 6.31523 1.65244C6.03097 1.36819 5.66881 1.17461 5.27454 1.09618C4.88027 1.01776 4.4716 1.05801 4.10021 1.21185C3.72881 1.36568 3.41138 1.6262 3.18804 1.96044C2.9647 2.29469 2.8455 2.68766 2.8455 3.08965C2.8455 3.62871 3.05964 4.14569 3.44081 4.52686C3.82198 4.90803 4.33896 5.12217 4.87802 5.12217Z" fill="#4E5968"/>
</svg>
